<?xml version="1.0" encoding="utf-8"?>
<svg viewBox="0 0 500 500" xmlns="http://www.w3.org/2000/svg" xmlns:bx="https://boxy-svg.com">
  <path style="fill-rule: nonzero; paint-order: stroke; fill: rgb(223, 228, 255);" d="M 456.2915 256.9695 C 413.9506666666667 259.17 367.8253333333334 281.98600000000005 335.5176666666667 314.8808333333333 C 303.21 347.77566666666667 284.72 390.74933333333337 220.88733333333334 428.2561666666666 C 157.0546666666667 465.763 47.87933333333334 497.80299999999994 -6.1328333333333305 520.4408333333332 C -60.145 543.0786666666667 -58.994 556.3143333333333 39.12299999999999 555.1633333333333 C 137.23999999999998 554.0123333333332 332.323 538.4746666666666 433.89283333333333 527.253 C 535.4626666666667 516.0313333333334 543.5193333333333 509.12566666666663 547.26 499.055 C 551.0006666666667 488.9843333333333 550.4253333333334 475.7486666666667 546.6848333333334 451.57916666666665 C 542.9443333333334 427.4096666666666 536.0386666666667 392.30633333333327 529.4206666666666 354.6131666666666 C 522.8026666666667 316.92 516.4723333333333 276.637 524.241 265.70300000000003 C 532.0096666666667 254.769 553.8773333333334 273.184 545.533 273.184 C 537.1886666666667 273.184 498.6323333333333 254.769 456.2915 256.9695" transform="matrix(1, 0, 0, 1, 7.105427357601002e-15, 1.7763568394002505e-15)" bx:d="M 460.076 236.354 U 321.7 304.802 U 266.23 433.723 U -61.296 529.843 U -57.843 569.55 U 527.406 522.937 U 551.576 502.22 U 549.85 462.513 U 529.133 357.203 U 510.142 236.354 U 575.745 291.599 Z 1@1236f1b4"/>
</svg>